<svg width="30" height="30" viewBox="0 0 30 30" fill="none" xmlns="http://www.w3.org/2000/svg">
<path d="M11.0776 15.6933H13.3853V20.7702C13.3853 21.5108 14.2594 21.7872 14.7699 21.2317L20.3084 15.2317C20.7806 14.7133 20.1 14.3087 19.3853 14.3087H17.0776V9.23173C17.0776 8.49115 16.2035 8.21475 15.693 8.77019L10.1545 14.7702C9.68233 15.2886 10.3629 15.6933 11.0776 15.6933Z" stroke="black" stroke-width="2.9125" stroke-miterlimit="10" stroke-linecap="round" stroke-linejoin="round"/>
<path d="M14.7701 27.2317C21.6525 27.2317 27.2317 21.6525 27.2317 14.7701C27.2317 7.88781 21.6525 2.30859 14.7701 2.30859C7.88781 2.30859 2.30859 7.88781 2.30859 14.7701C2.30859 21.6525 7.88781 27.2317 14.7701 27.2317Z" stroke="black" stroke-width="2.9125" stroke-miterlimit="10" stroke-linecap="round" stroke-linejoin="round"/>
</svg>
